<?xml version="1.0" encoding="UTF-8" standalone="no"?>
<!-- Created with Inkscape (http://www.inkscape.org/) -->

<svg
   xmlns:dc="http://purl.org/dc/elements/1.1/"
   xmlns:cc="http://creativecommons.org/ns#"
   xmlns:rdf="http://www.w3.org/1999/02/22-rdf-syntax-ns#"
   xmlns:svg="http://www.w3.org/2000/svg"
   xmlns="http://www.w3.org/2000/svg"
   xmlns:sodipodi="http://sodipodi.sourceforge.net/DTD/sodipodi-0.dtd"
   xmlns:inkscape="http://www.inkscape.org/namespaces/inkscape"
   width="744.09448819"
   height="1052.3622047"
   id="svg3019"
   version="1.1"
   inkscape:version="0.48.5 r10040"
   sodipodi:docname="hawksnestlogo.png">
  <defs
     id="defs3021">
    <filter
       inkscape:label="Rough and glossy"
       inkscape:menu="Textures"
       inkscape:menu-tooltip="Crumpled glossy paper effect which can be used for pictures as for objects"
       color-interpolation-filters="sRGB"
       id="filter3080">
      <feTurbulence
         type="fractalNoise"
         numOctaves="7"
         baseFrequency="0.02"
         seed="55"
         result="result0"
         id="feTurbulence3082" />
      <feDiffuseLighting
         surfaceScale="4"
         diffuseConstant="1"
         kernelUnitLength="1"
         result="result1"
         in="result0"
         id="feDiffuseLighting3084">
        <feDistantLight
           azimuth="235"
           elevation="60"
           id="feDistantLight3086" />
      </feDiffuseLighting>
      <feSpecularLighting
         in="result0"
         surfaceScale="3"
         specularConstant="1"
         specularExponent="25"
         kernelUnitLength="1"
         result="result3"
         id="feSpecularLighting3088">
        <feDistantLight
           azimuth="235"
           elevation="55"
           id="feDistantLight3090" />
      </feSpecularLighting>
      <feComposite
         in="result1"
         in2="SourceGraphic"
         operator="arithmetic"
         k1="1"
         result="result2"
         id="feComposite3092" />
      <feComposite
         in="result2"
         in2="result3"
         operator="arithmetic"
         k2="1"
         k3="1"
         result="result4"
         id="feComposite3094" />
      <feComposite
         in2="SourceAlpha"
         operator="in"
         in="result4"
         result="fbSourceGraphic"
         id="feComposite3096" />
      <feDisplacementMap
         scale="7"
         yChannelSelector="G"
         xChannelSelector="R"
         in2="result0"
         id="feDisplacementMap3098" />
    </filter>
  </defs>
  <sodipodi:namedview
     id="base"
     pagecolor="#ffffff"
     bordercolor="#666666"
     borderopacity="1.0"
     inkscape:pageopacity="0.0"
     inkscape:pageshadow="2"
     inkscape:zoom="0.35"
     inkscape:cx="375"
     inkscape:cy="1921.8672"
     inkscape:document-units="px"
     inkscape:current-layer="layer1"
     showgrid="false"
     inkscape:window-width="1440"
     inkscape:window-height="775"
     inkscape:window-x="0"
     inkscape:window-y="0"
     inkscape:window-maximized="1" />
  <metadata
     id="metadata3024">
    <rdf:RDF>
      <cc:Work
         rdf:about="">
        <dc:format>image/svg+xml</dc:format>
        <dc:type
           rdf:resource="http://purl.org/dc/dcmitype/StillImage" />
        <dc:title></dc:title>
      </cc:Work>
    </rdf:RDF>
  </metadata>
  <g
     inkscape:label="Layer 1"
     inkscape:groupmode="layer"
     id="layer1">
    <flowRoot
       xml:space="preserve"
       id="flowRoot3027"
       style="font-size:40px;font-style:italic;font-variant:normal;font-weight:bold;font-stretch:normal;text-align:start;line-height:125%;letter-spacing:0px;word-spacing:0px;writing-mode:lr-tb;text-anchor:start;fill:#ffffff;fill-opacity:1;stroke:none;filter:url(#filter3080);font-family:Zapfino;-inkscape-font-specification:Zapfino Bold Italic"><flowRegion
         id="flowRegion3029"><rect
           id="rect3031"
           width="377.14252"
           height="202.85719"
           x="-1434.2858"
           y="-1610.495"
           style="font-style:italic;font-variant:normal;font-weight:bold;font-stretch:normal;font-family:Zapfino;-inkscape-font-specification:Zapfino Bold Italic;fill:#ffffff" /></flowRegion><flowPara
         id="flowPara3033"
         style="font-style:italic;font-weight:normal;fill:#ffffff;-inkscape-font-specification:Zapfino Italic">HawksNest</flowPara><flowPara
         id="flowPara3035"
         style="font-style:italic;font-weight:normal;fill:#ffffff;-inkscape-font-specification:Zapfino Italic">Vineyards</flowPara></flowRoot>    <flowRoot
       xml:space="preserve"
       id="flowRoot3058"
       style="fill:#000080;stroke:none;stroke-opacity:1;stroke-width:1px;stroke-linejoin:miter;stroke-linecap:butt;fill-opacity:1;font-family:PilGi;font-style:normal;font-weight:normal;font-size:40px;line-height:125%;letter-spacing:0px;word-spacing:0px;-inkscape-font-specification:PilGi;font-stretch:normal;font-variant:normal;text-anchor:start;text-align:start;writing-mode:lr"><flowRegion
         id="flowRegion3060"><rect
           id="rect3062"
           width="268.57144"
           height="117.14286"
           x="-1445.7142"
           y="-1644.7806"
           style="fill:#000080" /></flowRegion><flowPara
         id="flowPara3064"></flowPara></flowRoot>    <path
       style="fill:#ffffff"
       id="path3114"
       d="m -1459.4378,-1561.2981 c -8.3151,-3.1999 -17.4464,-4.9199 -26.7233,-6.0378 -3.7379,-0.2521 -7.5459,-0.9522 -11.3027,-0.3601 -1.049,0.1653 -3.9462,1.167 -3.0362,0.7646 26.0227,-11.5086 9.6236,-3.6489 7.7503,-2.7409 -4.6061,2.7187 -7.0101,6.8187 -9.1426,10.6875 -2.0203,4.3352 -2.3427,8.9002 -2.5523,13.4212 -0.28,4.8421 -0.246,9.6097 0.9458,14.385 2.1432,4.1023 4.284,8.192 6.6278,12.2393 2.6333,4.4541 6.5746,8.5439 10.999,12.2166 4.4399,3.6075 10.2147,6.0318 15.7454,8.6691 5.3342,3.1536 11.1965,5.643 17.6342,7.4873 5.3438,2.5527 11.6836,3.1383 17.7685,4.2706 7.6879,1.5116 15.6154,2.1188 23.5545,2.4764 7.6808,0.2689 15.374,0.2556 23.0621,0.2569 7.4743,-0.013 14.9486,-0.017 22.4229,-0.022 9.9031,-0.1463 19.8452,0.3807 29.7058,-0.3534 7.3342,-0.6662 14.559,-1.4882 21.666,-2.9023 6.8326,-1.4097 14.0257,-1.3297 20.9512,-2.3363 8.3231,-1.2117 16.5826,-2.6467 24.8076,-4.1688 9.3284,-1.7129 18.8456,-2.7454 28.2772,-4.1171 10.4993,-1.5199 21.2337,-1.7791 31.9127,-2.0046 9.563,-0.1658 19.1296,-0.1668 28.6949,-0.1638 6.7065,-6e-4 13.413,0.014 20.1195,0.01 6.9232,0.436 12.9998,2.7509 19.1966,4.7529 5.854,1.6061 10.7186,4.48 15.575,7.2184 4.9108,2.3208 9.303,4.7325 12.9498,8.0525 3.7931,3.9487 6.8626,7.7528 8.3933,12.419 0.9282,3.431 1.1117,6.9247 1.2914,10.405 0,0 -13.3443,4.8223 -13.3443,4.8223 l 0,0 c -0.1582,-3.4181 -0.313,-6.8493 -1.1747,-10.2244 -1.4203,-4.5257 -4.3988,-8.1901 -8.0702,-12.0136 -3.6098,-3.2277 -8.0589,-5.4832 -12.7862,-7.8297 -4.8031,-2.6683 -9.5594,-5.4681 -15.3437,-7.0209 -6.0467,-1.9648 -12.063,-4.1477 -18.8608,-4.3628 -6.6899,-0.014 -13.3799,-0.017 -20.0698,-0.035 -9.5343,-0.01 -19.0704,-0.017 -28.6023,0.1586 -10.6502,0.2487 -21.3455,0.5919 -31.7979,2.1725 -9.4082,1.3951 -18.937,2.3519 -28.2201,4.1498 -8.2744,1.4864 -16.5452,3.0046 -24.9306,4.1452 -6.9504,0.8334 -14.0875,0.9528 -20.88,2.4118 -7.1294,1.376 -14.4371,2.0614 -21.7655,2.7178 -9.9188,0.5497 -19.884,0.1715 -29.8267,0.297 -7.476,0.01 -14.9522,0.023 -22.4282,0.022 -7.7066,-0.01 -15.4195,0 -23.1161,-0.3174 -8.002,-0.41 -15.9724,-1.1067 -23.7226,-2.6276 -6.1842,-1.0695 -12.4485,-1.9212 -17.9072,-4.3913 -6.456,-1.9515 -12.3499,-4.5274 -17.8023,-7.656 -5.6787,-2.6532 -11.4164,-5.2764 -15.9524,-8.9291 -4.4675,-3.7821 -8.5503,-7.9487 -11.249,-12.4949 -2.3827,-4.1162 -4.5522,-8.2749 -6.7568,-12.4417 -1.2582,-4.8425 -1.4368,-9.6593 -1.082,-14.5799 0.1607,-4.6153 0.4286,-9.2597 2.3082,-13.7203 2.0091,-4.0066 4.5568,-8.2028 8.79,-11.2703 12.4839,-6.4215 18.8013,-9.5207 32.8383,-7.5821 9.3801,1.2237 18.5536,3.093 27.021,6.2616 0,0 -12.5625,5.8129 -12.5625,5.8129 z"
       inkscape:connector-curvature="0" />
  </g>
</svg>
